<mxfile host="Electron" modified="2023-10-18T15:06:40.761Z" agent="Mozilla/5.0 (Windows NT 10.0; Win64; x64) AppleWebKit/537.36 (KHTML, like Gecko) draw.io/22.0.2 Chrome/114.0.5735.289 Electron/25.8.4 Safari/537.36" etag="RaW7DylQoIcWNJbQgGJn" version="22.0.2" type="device">
  <diagram name="Page-1" id="74e2e168-ea6b-b213-b513-2b3c1d86103e">
    <mxGraphModel dx="2740" dy="2173" grid="1" gridSize="10" guides="1" tooltips="1" connect="1" arrows="1" fold="1" page="0" pageScale="1" pageWidth="3300" pageHeight="2339" background="#FFFFCC" math="0" shadow="0">
      <root>
        <mxCell id="0" />
        <mxCell id="1" parent="0" />
        <mxCell id="xZfkGkITWZklTgb6cfSe-4" value="" style="edgeStyle=orthogonalEdgeStyle;rounded=1;hachureGap=4;orthogonalLoop=1;jettySize=auto;html=1;fontFamily=Architects Daughter;fontSource=https%3A%2F%2Ffonts.googleapis.com%2Fcss%3Ffamily%3DArchitects%2BDaughter;fontSize=20;strokeWidth=4;shadow=0;labelBackgroundColor=none;fontColor=default;fontStyle=1" parent="1" source="xZfkGkITWZklTgb6cfSe-1" edge="1">
          <mxGeometry relative="1" as="geometry">
            <mxPoint x="20" y="-435.9999999999998" as="targetPoint" />
          </mxGeometry>
        </mxCell>
        <mxCell id="xZfkGkITWZklTgb6cfSe-1" value="&lt;font style=&quot;font-size: 20px;&quot;&gt;IINICIAR PROGRAMA&lt;br style=&quot;font-size: 20px;&quot;&gt;TP 01&lt;/font&gt;" style="rounded=1;whiteSpace=wrap;html=1;strokeWidth=4;shadow=0;labelBackgroundColor=none;fontStyle=1;fontSize=20;" parent="1" vertex="1">
          <mxGeometry x="-120" y="-680" width="280" height="150" as="geometry" />
        </mxCell>
        <mxCell id="xZfkGkITWZklTgb6cfSe-8" value="" style="edgeStyle=orthogonalEdgeStyle;rounded=1;hachureGap=4;orthogonalLoop=1;jettySize=auto;html=1;fontFamily=Architects Daughter;fontSource=https%3A%2F%2Ffonts.googleapis.com%2Fcss%3Ffamily%3DArchitects%2BDaughter;fontSize=20;strokeWidth=4;shadow=0;exitX=0.5;exitY=1;exitDx=0;exitDy=0;entryX=0.5;entryY=0;entryDx=0;entryDy=0;labelBackgroundColor=none;fontColor=default;fontStyle=1" parent="1" edge="1">
          <mxGeometry relative="1" as="geometry">
            <mxPoint x="20" y="-285.9999999999998" as="sourcePoint" />
            <mxPoint x="20" y="-190" as="targetPoint" />
          </mxGeometry>
        </mxCell>
        <mxCell id="mB_Qi2r2gTrQJzQCTKj4-2" value="&lt;span style=&quot;font-size: 20px;&quot;&gt;Leer un registro &lt;br style=&quot;font-size: 20px;&quot;&gt;del archivo alumno.txt&lt;/span&gt;" style="rounded=1;whiteSpace=wrap;html=1;strokeWidth=4;shadow=0;labelBackgroundColor=none;fontStyle=1;fontSize=20;" vertex="1" parent="1">
          <mxGeometry x="-120" y="60" width="280" height="80" as="geometry" />
        </mxCell>
        <mxCell id="mB_Qi2r2gTrQJzQCTKj4-5" value="" style="endArrow=classic;html=1;rounded=0;entryX=0.5;entryY=0;entryDx=0;entryDy=0;exitX=0.5;exitY=1;exitDx=0;exitDy=0;strokeWidth=4;fontStyle=1;fontSize=20;" edge="1" parent="1" target="mB_Qi2r2gTrQJzQCTKj4-2">
          <mxGeometry width="50" height="50" relative="1" as="geometry">
            <mxPoint x="20" y="-40" as="sourcePoint" />
            <mxPoint x="30" y="-30" as="targetPoint" />
          </mxGeometry>
        </mxCell>
        <mxCell id="mB_Qi2r2gTrQJzQCTKj4-6" value="&lt;font style=&quot;font-size: 20px;&quot;&gt;Es el último registro&amp;nbsp;&lt;br style=&quot;font-size: 20px;&quot;&gt;del archivo ?&lt;br style=&quot;font-size: 20px;&quot;&gt;&lt;/font&gt;" style="rhombus;whiteSpace=wrap;html=1;strokeWidth=4;fontStyle=1;fontSize=20;" vertex="1" parent="1">
          <mxGeometry x="-130" y="203" width="300" height="220" as="geometry" />
        </mxCell>
        <mxCell id="mB_Qi2r2gTrQJzQCTKj4-8" value="&lt;font style=&quot;font-size: 20px;&quot;&gt;&lt;span style=&quot;font-size: 20px;&quot;&gt;No&lt;/span&gt;&lt;/font&gt;" style="text;html=1;strokeColor=none;fillColor=none;align=center;verticalAlign=middle;whiteSpace=wrap;rounded=0;fontStyle=1;fontSize=20;" vertex="1" parent="1">
          <mxGeometry x="-210" y="253" width="60" height="30" as="geometry" />
        </mxCell>
        <mxCell id="mB_Qi2r2gTrQJzQCTKj4-10" value="" style="endArrow=classic;html=1;rounded=0;exitX=0.5;exitY=1;exitDx=0;exitDy=0;entryX=0.5;entryY=0;entryDx=0;entryDy=0;strokeWidth=4;fontStyle=1;fontSize=20;" edge="1" parent="1" source="mB_Qi2r2gTrQJzQCTKj4-2" target="mB_Qi2r2gTrQJzQCTKj4-6">
          <mxGeometry width="50" height="50" relative="1" as="geometry">
            <mxPoint x="140" y="150" as="sourcePoint" />
            <mxPoint x="190" y="100" as="targetPoint" />
          </mxGeometry>
        </mxCell>
        <mxCell id="mB_Qi2r2gTrQJzQCTKj4-11" value="&lt;font style=&quot;font-size: 20px;&quot;&gt;&lt;span style=&quot;font-size: 20px;&quot;&gt;Si&lt;/span&gt;&lt;/font&gt;" style="text;html=1;strokeColor=none;fillColor=none;align=center;verticalAlign=middle;whiteSpace=wrap;rounded=0;fontStyle=1;fontSize=20;" vertex="1" parent="1">
          <mxGeometry x="180" y="253" width="60" height="30" as="geometry" />
        </mxCell>
        <mxCell id="mB_Qi2r2gTrQJzQCTKj4-13" value="&lt;span style=&quot;font-size: 20px;&quot;&gt;Move NN to&amp;nbsp;&lt;br style=&quot;font-size: 20px;&quot;&gt;APELLIDO-NOMBRE&lt;br style=&quot;font-size: 20px;&quot;&gt;&lt;/span&gt;" style="rounded=1;whiteSpace=wrap;html=1;strokeWidth=4;shadow=0;labelBackgroundColor=none;fontStyle=1;fontSize=20;" vertex="1" parent="1">
          <mxGeometry x="360" y="360" width="280" height="80" as="geometry" />
        </mxCell>
        <mxCell id="mB_Qi2r2gTrQJzQCTKj4-15" style="edgeStyle=orthogonalEdgeStyle;rounded=0;orthogonalLoop=1;jettySize=auto;html=1;exitX=1;exitY=0.5;exitDx=0;exitDy=0;entryX=0.44;entryY=0.004;entryDx=0;entryDy=0;entryPerimeter=0;strokeWidth=4;fontStyle=1;fontSize=20;" edge="1" parent="1" source="mB_Qi2r2gTrQJzQCTKj4-6" target="mB_Qi2r2gTrQJzQCTKj4-13">
          <mxGeometry relative="1" as="geometry" />
        </mxCell>
        <mxCell id="mB_Qi2r2gTrQJzQCTKj4-16" value="&lt;font style=&quot;font-size: 20px;&quot;&gt;Iniciar Programa&lt;/font&gt;" style="shape=process;whiteSpace=wrap;html=1;backgroundOutline=1;strokeWidth=4;fontStyle=1;fontSize=20;" vertex="1" parent="1">
          <mxGeometry x="-110" y="-190" width="260" height="150" as="geometry" />
        </mxCell>
        <mxCell id="mB_Qi2r2gTrQJzQCTKj4-17" value="&lt;font style=&quot;font-size: 20px;&quot;&gt;&lt;b&gt;Iniciar Programa&lt;/b&gt;&lt;/font&gt;" style="shape=process;whiteSpace=wrap;html=1;backgroundOutline=1;strokeWidth=4;" vertex="1" parent="1">
          <mxGeometry x="2277" y="-680" width="260" height="150" as="geometry" />
        </mxCell>
        <mxCell id="mB_Qi2r2gTrQJzQCTKj4-19" value="MOVE &quot;Economía&quot;     TO WS-LI-MATERIAS(1)&lt;br&gt;MOVE &quot;Física&quot;       TO WS-LI-MATERIAS(2)&lt;br&gt;MOVE &quot;Informática&quot;  TO WS-LI-MATERIAS(3)&lt;br&gt;MOVE &quot;Inglés&quot;       TO WS-LI-MATERIAS(4)&lt;br&gt;MOVE &quot;Matemáticas&quot;  TO WS-LI-MATERIAS(5)&lt;br&gt;MOVE &quot;Química&quot;      TO WS-LI-MATERIAS(6)" style="rounded=1;whiteSpace=wrap;html=1;strokeWidth=4;shadow=0;labelBackgroundColor=none;fontStyle=1;fontSize=20;" vertex="1" parent="1">
          <mxGeometry x="2142" y="-476" width="530" height="190" as="geometry" />
        </mxCell>
        <mxCell id="mB_Qi2r2gTrQJzQCTKj4-20" value="&lt;font style=&quot;font-size: 20px;&quot;&gt;Preparar&amp;nbsp;&lt;br style=&quot;font-size: 20px;&quot;&gt;Archivos&lt;br style=&quot;font-size: 20px;&quot;&gt;&lt;/font&gt;" style="shape=process;whiteSpace=wrap;html=1;backgroundOutline=1;strokeWidth=4;fontStyle=1;fontSize=20;" vertex="1" parent="1">
          <mxGeometry x="-110" y="-436" width="260" height="150" as="geometry" />
        </mxCell>
        <mxCell id="mB_Qi2r2gTrQJzQCTKj4-21" value="&lt;font style=&quot;font-size: 20px;&quot;&gt;Preparar&amp;nbsp;&lt;br style=&quot;font-size: 20px;&quot;&gt;Archivos&lt;br style=&quot;font-size: 20px;&quot;&gt;&lt;/font&gt;" style="shape=process;whiteSpace=wrap;html=1;backgroundOutline=1;strokeWidth=4;fontStyle=1;fontSize=20;" vertex="1" parent="1">
          <mxGeometry x="1370" y="-680" width="260" height="150" as="geometry" />
        </mxCell>
        <mxCell id="mB_Qi2r2gTrQJzQCTKj4-22" value="" style="endArrow=classic;html=1;rounded=0;exitX=0.5;exitY=1;exitDx=0;exitDy=0;strokeWidth=4;" edge="1" parent="1" source="mB_Qi2r2gTrQJzQCTKj4-17" target="mB_Qi2r2gTrQJzQCTKj4-19">
          <mxGeometry width="50" height="50" relative="1" as="geometry">
            <mxPoint x="1780" y="-170" as="sourcePoint" />
            <mxPoint x="1830" y="-220" as="targetPoint" />
          </mxGeometry>
        </mxCell>
        <mxCell id="mB_Qi2r2gTrQJzQCTKj4-23" value="&lt;p style=&quot;margin: 0px;&quot;&gt;SELECT ENT-ALUMNOS&lt;/p&gt;&lt;p style=&quot;margin: 0px;&quot;&gt;ASSIGN TO &#39;../ALUMNOS.TXT&#39;&lt;/p&gt;&lt;p style=&quot;margin: 0px;&quot;&gt;ORGANIZATION IS LINE SEQUENTIAL&lt;/p&gt;&lt;p style=&quot;margin: 0px;&quot;&gt;FILE STATUS IS FS-ENT-ALUMNOS.&lt;/p&gt;&lt;p style=&quot;margin: 0px;&quot;&gt;&lt;br&gt;&lt;/p&gt;&lt;p style=&quot;margin: 0px;&quot;&gt;SELECT SAL-DESCARTADOS&lt;/p&gt;&lt;p style=&quot;margin: 0px;&quot;&gt;           ASSIGN TO &#39;../DESCARTADOS.TXT&#39;&lt;/p&gt;&lt;p style=&quot;margin: 0px;&quot;&gt;           ORGANIZATION IS LINE SEQUENTIAL&lt;/p&gt;&lt;p style=&quot;margin: 0px;&quot;&gt;&lt;br&gt;&lt;/p&gt;&lt;p style=&quot;margin: 0px;&quot;&gt;           FILE STATUS IS FS-SAL-DESCARTADOS&lt;/p&gt;&lt;p style=&quot;margin: 0px;&quot;&gt;SELECT SAL-ERRORES&lt;/p&gt;&lt;p style=&quot;margin: 0px;&quot;&gt;           ASSIGN TO &#39;../ERROR.TXT&#39;&lt;/p&gt;&lt;p style=&quot;margin: 0px;&quot;&gt;           ORGANIZATION IS LINE SEQUENTIAL&lt;/p&gt;&lt;p style=&quot;margin: 0px;&quot;&gt;&lt;br&gt;&lt;/p&gt;&lt;p style=&quot;margin: 0px;&quot;&gt;           FILE STATUS IS FS-SAL-ERRORES.&lt;/p&gt;&lt;p style=&quot;margin: 0px;&quot;&gt;SELECT SAL-HONOR&lt;/p&gt;&lt;p style=&quot;margin: 0px;&quot;&gt;           ASSIGN TO &#39;../HONOR.TXT&#39;&lt;/p&gt;&lt;p style=&quot;margin: 0px;&quot;&gt;           ORGANIZATION IS LINE SEQUENTIAL&lt;/p&gt;&lt;p style=&quot;margin: 0px;&quot;&gt;&lt;br&gt;&lt;/p&gt;&lt;p style=&quot;margin: 0px;&quot;&gt;           FILE STATUS IS FS-SAL-HONOR.&lt;/p&gt;&lt;p style=&quot;margin: 0px;&quot;&gt;SELECT SAL-PROMEDIOS&lt;/p&gt;&lt;p style=&quot;margin: 0px;&quot;&gt;           ASSIGN TO &#39;../PROMEDIOS.TXT&#39;&lt;/p&gt;&lt;p style=&quot;margin: 0px;&quot;&gt;           ORGANIZATION IS LINE SEQUENTIAL&lt;/p&gt;&lt;p style=&quot;margin: 0px;&quot;&gt;&lt;br&gt;&lt;/p&gt;&lt;p style=&quot;margin: 0px;&quot;&gt;           FILE STATUS IS FS-SAL-PROMEDIOS.&lt;/p&gt;&lt;p style=&quot;margin: 0px;&quot;&gt;SELECT SAL-PROMEDIOS&lt;/p&gt;&lt;p style=&quot;margin: 0px;&quot;&gt;           ASSIGN TO &#39;../PROMEDIOS.TXT&#39;&lt;/p&gt;&lt;p style=&quot;margin: 0px;&quot;&gt;           ORGANIZATION IS LINE SEQUENTIAL&lt;/p&gt;" style="rounded=1;whiteSpace=wrap;html=1;strokeWidth=4;shadow=0;labelBackgroundColor=none;fontStyle=1;fontSize=20;" vertex="1" parent="1">
          <mxGeometry x="1235" y="-470" width="530" height="710" as="geometry" />
        </mxCell>
        <mxCell id="mB_Qi2r2gTrQJzQCTKj4-24" value="" style="endArrow=classic;html=1;rounded=0;entryX=0.5;entryY=0;entryDx=0;entryDy=0;exitX=0.5;exitY=1;exitDx=0;exitDy=0;strokeWidth=4;" edge="1" parent="1" source="mB_Qi2r2gTrQJzQCTKj4-21" target="mB_Qi2r2gTrQJzQCTKj4-23">
          <mxGeometry width="50" height="50" relative="1" as="geometry">
            <mxPoint x="1510" y="-140" as="sourcePoint" />
            <mxPoint x="1560" y="-190" as="targetPoint" />
          </mxGeometry>
        </mxCell>
      </root>
    </mxGraphModel>
  </diagram>
</mxfile>
